<?xml version="1.0" encoding="UTF-8" standalone="no"?><svg width="139pt" height="23pt" viewBox="0 0 139 23" xmlns="http://www.w3.org/2000/svg"><g id="fontsvg1670628482914" stroke-linecap="round" fill-rule="evenodd" fill="#ffffff"><path d="M 94.11 22.5 L 97.65 22.5 L 97.65 14.4 A 4.402 4.402 0 0 1 98.002 12.621 A 3.472 3.472 0 0 1 101.28 10.53 A 3.322 3.322 0 0 1 103.062 10.992 C 103.948 11.545 104.49 12.606 104.49 14.22 L 104.49 22.5 L 108.03 22.5 L 108.03 14.34 A 4.214 4.214 0 0 1 108.42 12.516 A 3.489 3.489 0 0 1 111.66 10.53 A 3.322 3.322 0 0 1 113.442 10.992 C 114.328 11.545 114.87 12.606 114.87 14.22 L 114.87 22.5 L 118.41 22.5 L 118.41 13.47 C 118.41 9.746 116.117 7.311 112.763 7.204 A 7.269 7.269 0 0 0 112.53 7.2 C 110.13 7.2 108.54 8.31 107.19 10.02 A 5.311 5.311 0 0 0 103.281 7.291 A 6.869 6.869 0 0 0 102.15 7.2 A 6.246 6.246 0 0 0 98.7 8.24 A 6.078 6.078 0 0 0 97.65 9.12 L 97.65 7.5 L 94.11 7.5 L 94.11 22.5 Z M 124.68 22.5 L 129.69 14.73 L 134.67 22.5 L 138.87 22.5 L 131.79 11.4 L 138.51 0.9 L 134.31 0.9 L 129.69 8.1 L 125.07 0.9 L 120.84 0.9 L 127.59 11.4 L 120.48 22.5 L 124.68 22.5 Z M 0 22.5 L 3.54 22.5 L 3.54 15.72 L 9 15.72 A 6.763 6.763 0 0 0 15.632 10.576 A 8.546 8.546 0 0 0 15.93 8.31 A 8.021 8.021 0 0 0 14.879 4.242 A 6.672 6.672 0 0 0 9 0.9 L 0 0.9 L 0 22.5 Z M 56.82 11.04 L 56.82 22.5 L 60.36 22.5 L 60.36 11.04 L 64.05 11.04 L 64.05 7.5 L 60.36 7.5 L 60.36 6.93 C 60.36 5.036 61.043 4.281 62.288 4.079 A 5.23 5.23 0 0 1 63.12 4.02 L 64.05 4.02 L 64.05 0.6 L 62.82 0.6 A 8.094 8.094 0 0 0 60.189 0.989 C 58.066 1.72 56.82 3.518 56.82 6.69 L 56.82 7.5 L 54.3 7.5 L 54.3 11.04 L 56.82 11.04 Z M 42.63 7.5 L 42.63 11.04 L 45.39 11.04 L 45.39 17.46 A 10.24 10.24 0 0 0 45.552 19.391 C 46.014 21.78 47.485 22.8 50.25 22.8 A 9.941 9.941 0 0 0 50.904 22.777 C 51.346 22.748 51.803 22.691 52.212 22.616 A 7.538 7.538 0 0 0 52.74 22.5 L 52.74 19.14 A 18.387 18.387 0 0 1 52.074 19.262 C 51.803 19.306 51.544 19.339 51.286 19.359 A 7.282 7.282 0 0 1 50.73 19.38 A 2.843 2.843 0 0 1 50.004 19.303 C 49.234 19.097 48.974 18.442 48.935 16.868 A 18.817 18.817 0 0 1 48.93 16.41 L 48.93 11.04 L 52.74 11.04 L 52.74 7.5 L 48.93 7.5 L 48.93 3.48 L 45.39 3.48 L 45.39 6.21 C 45.39 6.888 44.982 7.363 44.362 7.475 A 1.64 1.64 0 0 1 44.07 7.5 L 42.63 7.5 Z M 36.81 20.58 L 36.81 22.5 L 40.35 22.5 L 40.35 7.5 L 36.81 7.5 L 36.81 9.36 A 6.129 6.129 0 0 0 35.202 8.036 A 6.079 6.079 0 0 0 32.19 7.2 A 7.412 7.412 0 0 0 24.881 13.504 A 8.549 8.549 0 0 0 24.75 15 A 8.014 8.014 0 0 0 26.908 20.558 A 7.209 7.209 0 0 0 32.19 22.8 C 34.08 22.8 35.82 21.81 36.81 20.58 Z M 22.05 0 L 18.51 0 L 18.51 22.5 L 22.05 22.5 L 22.05 0 Z M 73.29 7.2 C 69 7.2 65.49 10.68 65.49 15 C 65.49 19.29 69 22.8 73.29 22.8 C 77.61 22.8 81.09 19.29 81.09 15 C 81.09 10.68 77.61 7.2 73.29 7.2 Z M 87.33 22.5 L 87.33 14.4 C 87.33 12.21 89.046 10.657 91.174 10.537 A 4.732 4.732 0 0 1 91.44 10.53 A 6.567 6.567 0 0 1 91.535 10.53 C 91.633 10.532 91.74 10.538 91.83 10.56 L 91.83 7.2 A 6.192 6.192 0 0 0 89.68 7.573 A 5.628 5.628 0 0 0 87.33 9.21 L 87.33 7.5 L 83.79 7.5 L 83.79 22.5 L 87.33 22.5 Z M 8.52 12.18 L 3.54 12.18 L 3.54 4.44 L 8.55 4.44 C 10.602 4.44 12.002 5.565 12.341 7.405 A 5.001 5.001 0 0 1 12.42 8.31 A 4.301 4.301 0 0 1 12.024 10.182 C 11.545 11.178 10.657 11.855 9.477 12.089 A 4.916 4.916 0 0 1 8.52 12.18 Z M 32.55 10.74 C 34.89 10.74 36.81 12.66 36.81 15 C 36.81 17.34 34.89 19.26 32.55 19.26 C 30.21 19.26 28.29 17.34 28.29 15 C 28.29 12.66 30.21 10.74 32.55 10.74 Z M 69.03 15 C 69.03 12.66 70.95 10.74 73.29 10.74 C 75.63 10.74 77.55 12.66 77.55 15 C 77.55 17.34 75.63 19.26 73.29 19.26 C 70.95 19.26 69.03 17.34 69.03 15 Z" vector-effect="non-scaling-stroke"/></g></svg>